<svg id="Capa_1" enable-background="new 0 0 512 512" height="512" viewBox="0 0 512 512" width="512" xmlns="http://www.w3.org/2000/svg"><g><g><g><g><g><path d="m378.529 512c-4.204 0-7.611-3.407-7.611-7.612 0-7.226-2.145-10.422-5.112-14.845-3.428-5.109-7.694-11.467-7.694-23.327 0-11.861 4.266-18.22 7.694-23.33 2.967-4.424 5.112-7.62 5.112-14.848 0-7.227-2.145-10.424-5.112-14.847-3.428-5.11-7.694-11.469-7.694-23.33 0-11.86 4.266-18.218 7.694-23.327 2.967-4.423 5.112-7.619 5.112-14.845 0-4.204 3.407-7.611 7.611-7.611s7.612 3.407 7.612 7.611c0 11.86-4.266 18.218-7.694 23.327-2.967 4.423-5.112 7.619-5.112 14.845 0 7.228 2.145 10.424 5.112 14.849 3.428 5.109 7.694 11.468 7.694 23.328 0 11.861-4.266 18.22-7.694 23.33-2.967 4.424-5.112 7.62-5.112 14.848 0 7.226 2.145 10.422 5.112 14.845 3.428 5.109 7.694 11.467 7.694 23.327 0 4.205-3.408 7.612-7.612 7.612z" fill="#fdd330"/></g><path d="m392.122 362.929h-29.554c-6.016 0-10.577-5.428-9.539-11.354l6.729-38.444h35.175l6.729 38.444c1.036 5.927-3.524 11.354-9.54 11.354z" fill="#1785f8"/><path d="m392.121 362.93h-24.464c6.012 0 10.58-5.426 9.539-11.358l-6.73-38.438h24.464l6.73 38.438c1.041 5.931-3.527 11.358-9.539 11.358z" fill="#1576f7"/></g><path d="m477.516 180.637c0 74.483-44.848 146.484-100.171 146.484s-100.172-72.001-100.172-146.484 44.849-123.242 100.172-123.242 100.171 48.759 100.171 123.242z" fill="#31a7fb"/><g><g><g><path d="m351.174 321.641c-37.611-16.015-66.453-65.023-72.725-119.115 15.101-12.097 40.564-24.743 72.116-10.545 43.782 19.7 46.39 77.527.609 129.66z" fill="#1c96f9"/></g></g></g><path d="m477.516 180.64c0 74.482-44.845 146.478-100.168 146.478-10.125 0-19.896-2.415-29.112-6.811 54.283-1.93 97.905-72.987 97.905-146.448 0-58.092-27.283-100.542-65.539-116.396 53.818 1.859 96.914 50.16 96.914 123.177z" fill="#1c96f9"/></g><g><g><g><g><path d="m238.974 509.818c-4.204 0-7.611-3.407-7.611-7.611 0-11.925 4.289-18.319 7.736-23.457 2.992-4.461 5.155-7.684 5.155-14.974 0-7.291-2.163-10.514-5.155-14.975-3.447-5.138-7.736-11.532-7.736-23.456s4.289-18.317 7.736-23.454c2.992-4.46 5.155-7.683 5.155-14.972 0-4.204 3.407-7.612 7.611-7.612s7.611 3.407 7.611 7.612c0 11.924-4.289 18.317-7.736 23.454-2.992 4.46-5.155 7.683-5.155 14.972 0 7.29 2.163 10.513 5.155 14.974 3.447 5.138 7.736 11.532 7.736 23.457 0 11.924-4.289 18.318-7.736 23.456-2.992 4.461-5.155 7.684-5.155 14.975.001 4.203-3.407 7.611-7.611 7.611z" fill="#1576f7"/></g><path d="m264.833 394.015h-29.554c-6.016 0-10.577-5.428-9.539-11.354l6.729-38.444h35.175l6.729 38.444c1.037 5.926-3.524 11.354-9.54 11.354z" fill="#fb3a82"/><path d="m264.832 394.014h-27.384c6.022 0 10.58-5.426 9.539-11.358l-6.72-38.438h27.374l6.73 38.438c1.04 5.932-3.517 11.358-9.539 11.358z" fill="#fb1466"/></g><g><g><g><path d="m337.367 174.388c-34.009-15.304-60.936.578-75.46 13.348-6.761 5.945-16.94 5.945-23.701 0-14.524-12.77-41.451-28.652-75.46-13.348-61.409 27.634-41.813 130.27 78.675 186.988 5.463 2.572 11.808 2.572 17.27 0 120.489-56.718 140.084-159.354 78.676-186.988z" fill="#fc95bb"/></g></g></g><path d="m243.923 191.12c-5.399 16.055-12.655 31.156-21.525 44.522-13.021 19.617-28.508 34.303-45.466 43.436l2.03 11.6c1.522 8.667-.822 17.496-6.434 24.276-56.335-54.701-56.65-119.48-9.783-140.569 34.008-15.304 60.933.578 75.465 13.356 1.725 1.511 3.663 2.638 5.713 3.379z" fill="#fc78a8"/><g><g><g><path d="m258.688 361.376c-5.456 2.577-11.802 2.577-17.269 0-5.447-2.567-10.681-5.214-15.713-7.952 1.95-.283 3.86-.859 5.669-1.708 115.416-54.333 138.263-150.793 85.991-183.108 6.336.808 13.015 2.637 19.997 5.78 61.417 27.636 41.814 130.27-78.675 186.988z" fill="#fc78a8"/></g></g></g></g></g></g><g><g><g><path d="m121.761 431.343c-4.204 0-7.611-3.407-7.611-7.612 0-12.875 4.643-19.796 8.374-25.358 3.237-4.824 5.793-8.634 5.793-16.875 0-8.242-2.556-12.053-5.793-16.876-3.73-5.562-8.374-12.483-8.374-25.358 0-12.874 4.643-19.794 8.374-25.355 3.237-4.824 5.793-8.633 5.793-16.873 0-4.204 3.407-7.612 7.611-7.612s7.611 3.407 7.611 7.612c0 12.874-4.643 19.794-8.374 25.355-3.237 4.824-5.793 8.633-5.793 16.873 0 8.242 2.556 12.053 5.793 16.876 3.73 5.562 8.374 12.483 8.374 25.358 0 12.874-4.643 19.796-8.374 25.357-3.237 4.824-5.793 8.634-5.793 16.876.001 4.205-3.407 7.612-7.611 7.612z" fill="#fc95bb"/></g><path d="m149.432 305.534h-29.554c-6.016 0-10.577-5.428-9.539-11.354l6.729-38.444h35.175l6.729 38.444c1.037 5.926-3.524 11.354-9.54 11.354z" fill="#f8c52d"/><g><path d="m149.435 305.537h-24.464c6.012 0 10.57-5.426 9.539-11.358l-6.73-38.448h24.464l6.73 38.448c1.031 5.932-3.526 11.358-9.539 11.358z" fill="#d6a826"/></g></g><path d="m234.827 123.242c0 74.483-44.848 146.484-100.171 146.484s-100.172-72.001-100.172-146.484 44.848-123.242 100.171-123.242 100.172 48.759 100.172 123.242z" fill="#fee265"/><path d="m234.831 123.237c0 74.492-44.855 146.488-100.179 146.488-8.114 0-15.996-1.546-23.554-4.426 51.979-5.881 93.004-74.836 93.004-146.084 0-61.841-30.921-105.948-73.088-119.135 1.203-.06 2.415-.08 3.638-.08 55.324 0 100.179 48.755 100.179 123.237z" fill="#fdd330"/></g></g></svg>