<?xml version="1.0" encoding="iso-8859-1"?>
<!-- Generator: Adobe Illustrator 19.0.0, SVG Export Plug-In . SVG Version: 6.00 Build 0)  -->
<svg version="1.1" id="Capa_1" xmlns="http://www.w3.org/2000/svg" xmlns:xlink="http://www.w3.org/1999/xlink" x="0px" y="0px"
	 viewBox="0 0 472 472" style="enable-background:new 0 0 472 472;" xml:space="preserve">
<g>
	<circle style="fill:#6ACCEF;" cx="60" cy="136" r="56"/>
	<path style="fill:#6ACCEF;" d="M188,264h-72v-40c0-17.672-14.328-32-32-32H36c-17.672,0-32,14.328-32,32v112
		c0,17.672,14.328,32,32,32h80v96h56V344c0-17.672-14.328-32-32-32h48V264z"/>
</g>
<g>
	<circle style="fill:#E05346;" cx="412" cy="136" r="56"/>
	<path style="fill:#E05346;" d="M332,312c-17.672,0-32,14.328-32,32v120h56v-96h80c17.672,0,32-14.328,32-32V224
		c0-17.672-14.328-32-32-32h-80h-32l-56-56l-32,32l72,72h72v72H332z"/>
</g>
<g>
	<rect x="196" y="456" style="fill:#2D2E46;" width="80" height="16"/>
	<rect x="228" y="312" style="fill:#2D2E46;" width="16" height="152"/>
	<rect x="132" y="304" style="fill:#2D2E46;" width="208" height="16"/>
	<rect x="420" y="368" style="fill:#2D2E46;" width="16" height="104"/>
	<rect x="36" y="368" style="fill:#2D2E46;" width="16" height="104"/>
</g>
<path style="fill:#E2DEDC;" d="M220,304h-72v-16h67.72l45.624-68.44l13.312,8.872l-48,72C225.168,302.664,222.672,304,220,304z"/>
<path style="fill:#FCBA5B;" d="M316,0H156c-8.84,0-16,7.16-16,16v64c0,8.84,7.16,16,16,16h16v56l56-56h88c8.84,0,16-7.16,16-16V16
	C332,7.16,324.84,0,316,0z"/>
<g>
	<rect x="164" y="24" style="fill:#2D2E46;" width="48" height="16"/>
	<rect x="164" y="56" style="fill:#2D2E46;" width="144" height="16"/>
	<rect x="228" y="24" style="fill:#2D2E46;" width="80" height="16"/>
</g>
<g>
</g>
<g>
</g>
<g>
</g>
<g>
</g>
<g>
</g>
<g>
</g>
<g>
</g>
<g>
</g>
<g>
</g>
<g>
</g>
<g>
</g>
<g>
</g>
<g>
</g>
<g>
</g>
<g>
</g>
</svg>
