<svg height="512" viewBox="0 0 64 64" width="512" xmlns="http://www.w3.org/2000/svg"><g id="Layer_13" data-name="Layer 13"><circle cx="32" cy="24" fill="#4472b0" r="22"/><path d="m7 55 9-1v8l16-16a22 22 0 0 1 -12.27-3.73z" fill="#f7d881"/><path d="m44.27 42.27a22 22 0 0 1 -12.27 3.73l16 16v-8l9 1z" fill="#f7d881"/><circle cx="32" cy="24" fill="#c7e2fb" r="18"/><path d="m45 17.5a16.74 16.74 0 0 0 -1.87-7.63 18 18 0 0 0 -22.49 28.13c13.59-.71 24.36-9.61 24.36-20.5z" fill="#ebf7fe"/><path d="m34 13a3 3 0 0 0 -3-3h-1v4l-4 4h-10.95a17.79 17.79 0 0 0 .84 14h10.11l4 2h12a2 2 0 0 0 2-2v-14h-10z" fill="#fddfb1"/><path d="m6 2 1.24 2.3 2.76.7-2 1.47 1 3.53-3-2.2-3 2.2 1-3.53-2-1.47 2.76-.7z" fill="#f7d881"/><path d="m58 2 1.24 2.3 2.76.7-2 1.47 1 3.53-3-2.2-3 2.2 1-3.53-2-1.47 2.76-.7z" fill="#f7d881"/><path d="m45.8 42.39a23 23 0 1 0 -27.6 0l-11.91 11.9a1 1 0 0 0 -.19 1.14 1 1 0 0 0 1 .56l7.9-.87v6.88a1 1 0 0 0 .62.92.84.84 0 0 0 .38.08 1 1 0 0 0 .71-.29l15.29-15.3 15.29 15.3a1 1 0 0 0 .71.29.84.84 0 0 0 .38-.08 1 1 0 0 0 .62-.92v-6.88l7.89.87a1 1 0 0 0 1-.56 1 1 0 0 0 -.19-1.14zm-34.8-18.39a21 21 0 1 1 21 21 21 21 0 0 1 -21-21zm5.67 29.25a1 1 0 0 0 -.78-.24l-6.17.68 10.16-10.16a22.62 22.62 0 0 0 9.82 3.35l-12.7 12.71v-5.59a1 1 0 0 0 -.33-.75zm31.44-.25a1 1 0 0 0 -.78.24 1 1 0 0 0 -.33.76v5.59l-12.7-12.71a22.62 22.62 0 0 0 9.82-3.35l10.16 10.16z"/><path d="m51 24a19 19 0 1 0 -19 19 19 19 0 0 0 19-19zm-35.25-5h10.25a1 1 0 0 0 .71-.29l4-4a1 1 0 0 0 .29-.71v-3a2 2 0 0 1 2 2v5a1 1 0 0 0 1 1h9v2h-8v2h8v2h-8v2h8v2h-8v2h8v1a1 1 0 0 1 -1 1h-11.76l-3.79-1.89a1 1 0 0 0 -.45-.11h-9.47a16.74 16.74 0 0 1 -1.53-7 17.19 17.19 0 0 1 .75-5zm1.85 14h8.16l3.79 1.89a1 1 0 0 0 .45.11h12a3 3 0 0 0 3-3v-14a1 1 0 0 0 -1-1h-9v-4a4 4 0 0 0 -4-4h-1a1 1 0 0 0 -1 1v3.59l-3.41 3.41h-9.06a17 17 0 1 1 1.07 16z"/><path d="m9 11a1 1 0 0 0 1-1.27l-.85-2.87 1.44-1.05a1 1 0 0 0 .39-1 1 1 0 0 0 -.74-.81l-2.33-.56-1-1.91a1 1 0 0 0 -1.76 0l-1 1.91-2.39.56a1 1 0 0 0 -.76.81 1 1 0 0 0 .39 1l1.46 1.05-.85 2.87a1 1 0 0 0 .39 1.09 1 1 0 0 0 1.16 0l2.45-1.82 2.41 1.77a1 1 0 0 0 .59.23zm-1.59-5.34a1 1 0 0 0 -.41 1.08l.21.74-.62-.48a1 1 0 0 0 -1.18 0l-.66.48.25-.74a1 1 0 0 0 -.37-1.08l-.33-.21.7-.18a1 1 0 0 0 .63-.49l.37-.66.36.66a1 1 0 0 0 .64.49l.71.18z"/><path d="m63 4.81a1 1 0 0 0 -.76-.81l-2.33-.59-1-1.91a1 1 0 0 0 -1.76 0l-1 1.91-2.39.59a1 1 0 0 0 -.74.78 1 1 0 0 0 .39 1l1.44 1.05-.85 2.9a1 1 0 0 0 .39 1.09 1 1 0 0 0 1.16 0l2.45-1.82 2.41 1.77a1 1 0 0 0 .59.23 1 1 0 0 0 1-1.27l-.81-2.87 1.44-1.05a1 1 0 0 0 .37-1zm-3.57.85a1 1 0 0 0 -.43 1.08l.21.74-.62-.48a1 1 0 0 0 -1.18 0l-.66.48.25-.74a1 1 0 0 0 -.37-1.08l-.29-.21.66-.18a1 1 0 0 0 .63-.49l.37-.66.36.66a1 1 0 0 0 .63.49l.71.18z"/></g></svg>