<?xml version="1.0" encoding="iso-8859-1"?>
<!-- Generator: Adobe Illustrator 19.0.0, SVG Export Plug-In . SVG Version: 6.00 Build 0)  -->
<svg xmlns="http://www.w3.org/2000/svg" xmlns:xlink="http://www.w3.org/1999/xlink" version="1.1" id="Capa_1" x="0px" y="0px" viewBox="0 0 512 512" style="enable-background:new 0 0 512 512;" xml:space="preserve" width="512" height="512">
<g>
	<g>
		<path style="fill:#D2F5FF;" d="M483.287,120.39H28.713c-11.716,0-21.213,9.498-21.213,21.213v235.556    c0,11.716,9.498,21.213,21.213,21.213h6.13h448.443c11.716,0,21.213-9.498,21.213-21.213V141.603    C504.5,129.887,495.002,120.39,483.287,120.39z"/>
		<path style="fill:#8BA7BC;" d="M7.5,327.38l23.724-12.61c5.614-2.984,9.122-8.822,9.122-15.18v-80.419    c0-6.357-3.509-12.196-9.122-15.18L7.5,191.383V327.38z"/>
		<path style="fill:#8BA7BC;" d="M483.287,120.39h-54.111v277.983h54.111c11.716,0,21.213-9.497,21.213-21.213V141.603    C504.5,129.887,495.002,120.39,483.287,120.39z"/>
		<path style="fill:#718A9E;" d="M483.287,120.39h-22.5c11.716,0,21.213,9.498,21.213,21.214v235.556    c0,11.716-9.498,21.213-21.213,21.213h22.5c11.716,0,21.213-9.498,21.213-21.213V141.603    C504.5,129.887,495.002,120.39,483.287,120.39z"/>
		<circle style="fill:#EBEAE6;" cx="466.838" cy="259.381" r="15.096"/>
	</g>
	<g>
		<g>
			<path style="fill:#75DC5E;" d="M429.176,281.193l-89.757,36.222c-1.082-1.113-2.593-1.806-4.268-1.806h-9.686H265.89h-9.462     H111.013v32.379h145.415v50.385h83.317h1.364v-48.651l88.068-11.131V281.193z"/>
			<path style="fill:#2AAD52;" d="M231.929,347.988v-3.56c0-15.916-12.902-28.819-28.818-28.819h-59.579     c-15.916,0.001-28.818,12.903-28.818,28.819v3.56H231.929z"/>
			<path style="fill:#EBEAE6;" d="M313.042,309.892h-34.728l-9.073,11.311c-1.935,2.412-2.775,5.523-2.318,8.581l3.645,24.39     c0.262,1.75,2.233,2.656,3.731,1.714l21.378-13.437l21.378,13.437c1.498,0.942,3.47,0.036,3.731-1.714l3.645-24.39     c0.457-3.058-0.383-6.169-2.318-8.581L313.042,309.892z"/>
			<path style="fill:#F2A077;" d="M278.314,286.652v33.53c0,0.951,0.33,1.872,0.933,2.607l13.253,16.157     c1.645,2.005,4.713,2.005,6.358,0l13.253-16.157c0.603-0.735,0.933-1.657,0.933-2.607v-33.53H278.314z"/>
			<g>
				<path style="fill:#FFCCAA;" d="M345.545,234.054h-3.597v-23.459c0-22.695-18.398-41.094-41.094-41.094h-10.354      c-22.695,0-41.094,18.398-41.094,41.094v23.459h-3.597c-5.969,0-10.808,4.839-10.808,10.808v5.111      c0,5.969,4.839,10.808,10.808,10.808h3.664c1.261,24.43,21.465,43.848,46.204,43.848c12.369,0,23.603-4.853,31.905-12.762      c8.302-7.909,13.664-18.876,14.299-31.086h3.664c5.969,0,10.807-4.839,10.807-10.808v-5.112      C356.352,238.893,351.514,234.054,345.545,234.054z"/>
				<path style="fill:#F2A077;" d="M345.545,234.054h-3.597V228h0v-4.519v-12.885c0-22.695-18.398-41.093-41.093-41.093h-10.354      c-0.638,0-1.27,0.019-1.901,0.048c21.812,0.994,39.193,18.988,39.193,41.045v23.459l-0.067,26.727      c-0.635,12.211-5.997,23.177-14.299,31.086c-6.686,6.37-15.276,10.752-24.827,12.219c2.308,0.354,4.67,0.543,7.077,0.543      c12.37,0,23.603-4.853,31.905-12.762c7.021-6.689,11.926-15.569,13.661-25.534h0c0,0,0-0.001,0-0.001      c0.149-0.855,0.276-1.717,0.377-2.588c0.01-0.081,0.021-0.161,0.03-0.241c0.1-0.898,0.182-1.802,0.23-2.715      c0-0.002,0-0.005,0.001-0.008h0.067h3.597c5.969,0,10.808-4.839,10.808-10.807v-5.112      C356.352,238.893,351.514,234.054,345.545,234.054z"/>
				<path style="fill:#F9DC6A;" d="M234.902,154.395h66.64c22.316,0,40.407,18.091,40.407,40.407v15.793h-80.341      c-14.749,0-26.706-11.957-26.706-26.706V154.395z"/>
				<path style="fill:#E5AC51;" d="M301.541,154.395h-14.78c22.316,0,40.407,18.091,40.407,40.407v15.793h14.78v-15.793      C341.948,172.486,323.857,154.395,301.541,154.395z"/>
			</g>
			<path style="fill:#2BB4F3;" d="M216.072,398.373H98.857v-53.944c0-15.917,12.903-28.82,28.82-28.82h59.576     c15.917,0,28.82,12.903,28.82,28.82V398.373z"/>
			<path style="fill:#1687C4;" d="M187.252,315.609h-12.337c15.917,0,28.82,12.903,28.82,28.819v53.944h12.337v-53.944     C216.072,328.512,203.169,315.609,187.252,315.609z"/>
			<path style="fill:#F2A077;" d="M140.1,286.652v35c0,9.59,7.774,17.364,17.364,17.364h0c9.59,0,17.364-7.774,17.364-17.364v-35     H140.1z"/>
			<g>
				<path style="fill:#FFCCAA;" d="M207.332,234.054h-3.597v-25.495c0-18.462-14.966-33.428-33.428-33.428h-25.685      c-18.462,0-33.428,14.966-33.428,33.428v25.495h-3.597c-5.969,0-10.808,4.839-10.808,10.808v5.111      c0,5.969,4.839,10.808,10.808,10.808h3.664c1.261,24.43,21.465,43.848,46.204,43.848c24.637,0,44.928-19.308,46.204-43.848      h3.664c5.969,0,10.808-4.839,10.808-10.808v-5.112C218.139,238.893,213.3,234.054,207.332,234.054z"/>
				<path style="fill:#F2A077;" d="M207.332,234.054h-3.597v-4.388h0v-19.071c0-7.019-1.76-13.628-4.863-19.407      c-5.867-9.628-16.466-16.056-28.565-16.056h-1.056c12.162,7.135,20.328,20.344,20.328,35.464v23.459l-0.067,26.727      c-1.145,22.025-17.669,40.01-39.125,43.305c26.459,4.063,50.674-15.023,53.129-41.378c0.064-0.638,0.119-1.279,0.152-1.927      h0.067h3.597c5.969,0,10.808-4.839,10.808-10.807v-5.112C218.139,238.893,213.3,234.054,207.332,234.054z"/>
				<path style="fill:#475D6D;" d="M111.194,211.943h13.303c3.764,0,7.175-2.213,8.71-5.65l3.452-7.731      c0.939-2.103,3.6-2.768,5.418-1.354l16.363,12.726c1.674,1.302,3.735,2.009,5.856,2.009h39.44v-28.732      c0-14.36-11.641-26.001-26.001-26.001h-31.611c-4.726,0-8.558,3.831-8.558,8.558v4.578h-13.786      c-6.951,0-12.585,5.635-12.585,12.585V211.943z"/>
				<path style="fill:#2C3F4F;" d="M177.734,157.21h-14.988c14.36,0,26.001,11.641,26.001,26.001v28.732h14.988v-28.732      C203.735,168.851,192.094,157.21,177.734,157.21z"/>
			</g>
			<path style="fill:#FFCCAA;" d="M110.519,352.668h-9.815c-5.548,0-10.046-4.498-10.046-10.046v-21.926     c0-5.548,4.498-10.046,10.046-10.046h9.815c4.076,0,7.381,3.304,7.381,7.381v27.258     C117.9,349.364,114.595,352.668,110.519,352.668z"/>
		</g>
	</g>
	<path style="fill:#F9DC6A;" d="M452.121,120.39c-34.484,8.79-41.609,15.916-50.399,50.399   c-8.79-34.484-15.915-41.609-50.399-50.399c34.484-8.79,41.609-15.915,50.399-50.399C410.511,104.474,417.637,111.6,452.121,120.39   z"/>
	<g>
		<path d="M34.744,193.989L15,183.494v-45.272c0-7.562,6.152-13.713,13.713-13.713h292.608c4.142,0,7.5-3.358,7.5-7.5    s-3.358-7.5-7.5-7.5H28.713C12.881,109.509,0,122.39,0,138.222c0,5.186,0,228.208,0,235.556c0,15.833,12.881,28.714,28.713,28.714    h6.13c4.142,0,7.5-3.358,7.5-7.5s-3.358-7.5-7.5-7.5h-6.13c-7.562,0-13.713-6.152-13.713-13.714v-45.272l19.744-10.494    c8.082-4.296,13.103-12.65,13.103-21.802v-80.418C47.847,206.638,42.826,198.284,34.744,193.989z M32.847,296.209    c0,3.592-1.971,6.871-5.143,8.557L15,311.519V200.481l12.705,6.753c3.172,1.686,5.142,4.964,5.142,8.557V296.209z"/>
		<path d="M444.243,256c0,12.459,10.136,22.596,22.595,22.596c12.459,0,22.596-10.136,22.596-22.596s-10.136-22.596-22.596-22.596    C454.379,233.404,444.243,243.541,444.243,256z M466.838,248.404c4.188,0,7.596,3.407,7.596,7.596s-3.407,7.596-7.596,7.596    c-4.188,0-7.595-3.407-7.595-7.596S462.65,248.404,466.838,248.404z"/>
		<path d="M483.287,109.509c-4.142,0-7.5,3.358-7.5,7.5s3.358,7.5,7.5,7.5c7.562,0,13.713,6.152,13.713,13.713v235.556    c0,2.836-0.865,5.473-2.345,7.662c-2.467,3.648-6.642,6.051-11.368,6.051h-46.611v-52.186c0-0.032,0.004-0.063,0.004-0.095v-57.4    c0-0.024-0.004-0.047-0.004-0.071V164.763c0-4.142-3.358-7.5-7.5-7.5s-7.5,3.358-7.5,7.5V272.75l-81.569,32.915    c-1.555-0.614-3.229-0.935-4.957-0.935h-13.924l-0.686-0.856v-1.206c4.413-2.306,8.526-5.234,12.214-8.749    c8.32-7.93,13.802-18.14,15.821-29.271c8.657-1.45,15.275-8.996,15.275-18.059v-5.11c0-8.755-6.176-16.094-14.4-17.89v-16.38    c0-0.013-0.002-0.026-0.002-0.039v-15.75c0-26.416-21.491-47.907-47.907-47.907h-66.64c-4.142,0-7.5,3.358-7.5,7.5v29.494    c0,11.531,5.741,21.74,14.509,27.939v15.14c-8.229,1.792-14.41,9.134-14.41,17.892v5.11c0,9.063,6.618,16.609,15.275,18.059    c3.013,16.626,13.622,30.495,28.035,38.018v1.208l-0.686,0.856H187.25h-4.92v-2.065c14.41-7.523,25.018-21.391,28.034-38.016    c8.657-1.45,15.276-8.996,15.276-18.059v-5.11c0-8.758-6.181-16.1-14.41-17.892v-14.929c0-0.032,0.005-0.064,0.005-0.097V179.83    c0-18.473-15.028-33.501-33.501-33.501h-31.611c-7.856,0-14.414,5.672-15.791,13.136h-6.553c-11.075,0-20.085,9.01-20.085,20.085    v25.552c0,0.026-0.004,0.051-0.004,0.077v18.41c-8.224,1.796-14.4,9.135-14.4,17.89v5.11c0,9.062,6.617,16.607,15.272,18.058    c3.01,16.63,13.62,30.501,28.038,38.023v2.059h-4.92c-1.917,0-3.815,0.157-5.689,0.453c-2.732-3.305-6.86-5.415-11.473-5.415    h-9.815c-9.675,0-17.546,7.871-17.546,17.546v21.926c0,6.239,3.283,11.713,8.202,14.825v33.426H64.843c-4.142,0-7.5,3.358-7.5,7.5    s3.358,7.5,7.5,7.5h418.443c9.895,0,18.638-5.032,23.803-12.671c0.258-0.382,0.508-0.77,0.748-1.165    c2.641-4.341,4.163-9.435,4.163-14.877v0V138.222C512,122.39,499.119,109.509,483.287,109.509z M242.401,158.514h59.14    c18.145,0,32.907,14.762,32.907,32.907v8.293h-72.841c-10.59,0-19.206-8.616-19.206-19.206V158.514z M256.96,257.011    c-0.207-3.986-3.499-7.111-7.49-7.111h-3.66c-1.825,0-3.31-1.485-3.31-3.31v-5.11c0-1.825,1.485-3.31,3.31-3.31h3.6    c4.142,0,7.5-3.358,7.5-7.5v-16.286c1.537,0.212,3.103,0.331,4.697,0.331h72.843v15.956c0,4.142,3.358,7.5,7.5,7.5h3.59    c1.825,0,3.31,1.485,3.31,3.31v5.11c0,1.825-1.485,3.31-3.31,3.31h-3.66c-3.992,0-7.284,3.127-7.49,7.114    c-0.512,9.919-4.768,19.17-11.983,26.047c-7.234,6.893-16.725,10.689-26.726,10.689    C275.039,293.75,258.031,277.612,256.96,257.011z M317.014,325.257c-0.002,0.012,0,0.024-0.002,0.036l-2.5,16.756l-7.438-4.676    L317.014,325.257z M305.54,307.84v7.753l-9.86,12.019l-9.87-12.03v-7.74c3.202,0.594,6.5,0.909,9.87,0.909    C299.02,308.75,302.316,308.437,305.54,307.84z M284.286,337.373l-7.441,4.677l-2.505-16.741c-0.003-0.021,0-0.042-0.003-0.062    L284.286,337.373z M118.694,179.55c0-2.804,2.281-5.085,5.085-5.085h13.786c4.142,0,7.5-3.358,7.5-7.5v-4.578    c0-0.583,0.475-1.058,1.058-1.058h31.611c10.202,0,18.501,8.299,18.501,18.501v21.232h-31.939c-0.451,0-0.896-0.152-1.251-0.429    l-16.363-12.727c-1.968-1.531-4.335-2.332-6.759-2.332c-0.899,0-1.806,0.11-2.703,0.334c-3.316,0.829-6.016,3.094-7.409,6.214    l-3.452,7.731c-0.327,0.733-1.058,1.208-1.861,1.208h-5.804V179.55z M118.75,257.014c-0.206-3.987-3.498-7.114-7.49-7.114h-3.66    c-1.825,0-3.31-1.485-3.31-3.31v-5.11c0-1.825,1.485-3.31,3.31-3.31h3.59c4.142,0,7.5-3.358,7.5-7.5v-14.608h5.808    c6.714,0,12.821-3.961,15.558-10.092l1.396-3.128l12.383,9.631c2.976,2.315,6.69,3.589,10.46,3.589h31.935v14.608    c0,4.142,3.358,7.5,7.5,7.5h3.6c1.825,0,3.31,1.485,3.31,3.31v5.11c0,1.825-1.485,3.31-3.31,3.31h-3.66    c-3.99,0-7.282,3.125-7.49,7.109c-0.805,15.432-10.55,28.358-24.063,33.875c-0.087,0.034-0.175,0.065-0.261,0.102    c-4.457,1.782-9.316,2.764-14.396,2.764c-5.094,0-9.965-0.986-14.431-2.776c-0.028-0.012-0.057-0.021-0.086-0.032    C129.355,285.458,119.549,272.498,118.75,257.014z M167.33,307.841v10.429c0,2.627-1.031,5.108-2.893,6.977    c-1.859,1.859-4.337,2.883-6.977,2.883c-5.437,0-9.86-4.423-9.86-9.86v-10.426c3.199,0.592,6.494,0.906,9.86,0.906    C160.83,308.75,164.128,308.435,167.33,307.841z M98.158,339.241v-21.926c0-1.404,1.142-2.546,2.546-2.546h9.695v27.019h-9.695    C99.3,341.787,98.158,340.645,98.158,339.241z M208.57,387.49h-4.356v-23.533c0-4.142-3.358-7.5-7.5-7.5s-7.5,3.358-7.5,7.5    v23.533h-63.499v-23.533c0-4.142-3.358-7.5-7.5-7.5s-7.5,3.358-7.5,7.5v23.533h-4.355v-30.703h4.159    c8.205,0,14.88-6.675,14.88-14.881v-22.042c0.755-0.081,1.514-0.135,2.281-0.135h4.966c0.759,13.031,11.596,23.4,24.814,23.4    c6.646,0,12.891-2.584,17.592-7.286c4.347-4.361,6.88-10.037,7.231-16.114h4.966c11.756,0,21.32,9.564,21.32,21.32V387.49z     M248.93,387.492h-25.36V352.11h25.36V387.492z M256.43,337.11h-33.078c-0.699-6.447-3.093-12.39-6.725-17.38h43.384    c-0.704,2.504-0.895,5.155-0.51,7.78l1.692,11.308C259.899,337.751,258.24,337.11,256.43,337.11z M421.676,387.492H348.61v-34.54    l73.066-9.234V387.492z M421.676,328.599l-81.506,10.3c-3.749,0.474-6.56,3.663-6.56,7.441v41.15h-69.68v-32.977    c0.972,2.164,2.687,3.937,4.904,4.958c3.06,1.409,6.593,1.184,9.457-0.612l17.389-10.931l17.376,10.923    c1.615,1.02,3.45,1.536,5.296,1.536c1.4,0,2.806-0.297,4.126-0.898c3.069-1.398,5.208-4.222,5.729-7.593l3.639-24.382    c0.394-2.623,0.206-5.277-0.499-7.785h3.198c2.111,1.806,5.07,2.309,7.681,1.255l79.449-32.059V328.599z"/>
		<path d="M319.992,261.57c1.557-3.838-0.293-8.212-4.131-9.769c-3.837-1.557-8.211,0.292-9.769,4.131    c-1.726,4.254-5.813,7.003-10.414,7.003c-3,0-5.827-1.171-7.952-3.291c-1.058-1.058-1.907-2.337-2.457-3.7    c-1.549-3.841-5.919-5.698-9.761-4.15c-3.841,1.549-5.699,5.919-4.15,9.761c1.316,3.263,3.254,6.188,5.768,8.701    c4.963,4.951,11.552,7.678,18.552,7.678C306.416,277.936,315.959,271.512,319.992,261.57z"/>
		<path d="M181.779,261.57c1.557-3.838-0.293-8.212-4.131-9.769c-3.837-1.557-8.211,0.292-9.769,4.131    c-1.726,4.254-5.813,7.003-10.414,7.003c-3,0-5.827-1.171-7.952-3.291c-1.072-1.072-1.899-2.317-2.457-3.701    c-1.55-3.841-5.92-5.697-9.762-4.148c-3.841,1.55-5.699,5.92-4.148,9.762c1.317,3.263,3.255,6.188,5.767,8.7    c4.963,4.951,11.552,7.678,18.552,7.678C168.202,277.936,177.746,271.512,181.779,261.57z"/>
		<path d="M380.487,415.398c-4.142,0-7.5,3.358-7.5,7.5v16.354c0,4.142,3.358,7.5,7.5,7.5s7.5-3.358,7.5-7.5v-16.354    C387.987,418.756,384.629,415.398,380.487,415.398z"/>
		<path d="M380.487,465.671c-4.142,0-7.5,3.358-7.5,7.5v16.354c0,4.142,3.358,7.5,7.5,7.5s7.5-3.358,7.5-7.5v-16.354    C387.987,469.029,384.629,465.671,380.487,465.671z"/>
		<path d="M413.801,448.712h-16.354c-4.142,0-7.5,3.358-7.5,7.5s3.358,7.5,7.5,7.5h16.354c4.142,0,7.5-3.358,7.5-7.5    S417.943,448.712,413.801,448.712z"/>
		<path d="M363.528,448.712h-16.354c-4.142,0-7.5,3.358-7.5,7.5s3.358,7.5,7.5,7.5h16.354c4.142,0,7.5-3.358,7.5-7.5    S367.67,448.712,363.528,448.712z"/>
		<path d="M131.513,46.329c4.142,0,7.5-3.358,7.5-7.5V22.475c0-4.142-3.358-7.5-7.5-7.5s-7.5,3.358-7.5,7.5v16.354    C124.013,42.971,127.371,46.329,131.513,46.329z"/>
		<path d="M131.513,96.602c4.142,0,7.5-3.358,7.5-7.5V72.748c0-4.142-3.358-7.5-7.5-7.5s-7.5,3.358-7.5,7.5v16.354    C124.013,93.244,127.371,96.602,131.513,96.602z"/>
		<path d="M148.472,63.288h16.354c4.142,0,7.5-3.358,7.5-7.5s-3.358-7.5-7.5-7.5h-16.354c-4.142,0-7.5,3.358-7.5,7.5    S144.33,63.288,148.472,63.288z"/>
		<path d="M98.199,63.288h16.354c4.142,0,7.5-3.358,7.5-7.5s-3.358-7.5-7.5-7.5H98.199c-4.142,0-7.5,3.358-7.5,7.5    S94.057,63.288,98.199,63.288z"/>
		<path d="M349.47,124.276c31.827,8.113,36.872,13.158,44.984,44.984c0.847,3.322,3.839,5.647,7.268,5.647s6.421-2.325,7.268-5.647    c8.112-31.826,13.157-36.871,44.984-44.984c3.322-0.847,5.647-3.839,5.647-7.268s-2.325-6.421-5.647-7.268    c-31.827-8.113-36.872-13.158-44.984-44.984c-0.847-3.322-3.839-5.647-7.268-5.647s-6.421,2.325-7.268,5.647    c-8.113,31.826-13.158,36.871-44.984,44.984c-3.322,0.847-5.647,3.839-5.647,7.268S346.147,123.43,349.47,124.276z     M401.722,90.946c5.674,12.951,13.111,20.388,26.063,26.063c-12.951,5.674-20.388,13.111-26.063,26.063    c-5.675-12.951-13.112-20.388-26.063-26.063C388.61,111.334,396.047,103.897,401.722,90.946z"/>
	</g>
</g>















</svg>
